:SAMPLES-PER-SECOND 30
:FULLY-SPECIFIED
:DEGREES
269
root  35.06064528 36.48053567 -14.97325747 8.199364662 -8.064641953 4.715158939
lowerback  -6.852479935 -1.284270048 -1.032749772
upperback  -4.081110001 -1.185750008 -4.059649944
thorax  -0.4351179898 -0.4253155589 -3.687469959
lowerneck  -12.05070019 -5.283720016 -3.876620054
upperneck  16.13380051 -7.523571014 7.498760223
head  7.377170086 -3.027220011 2.338619947
lclavicle  0 -4.497500157e-015 -2.743230041e-014
lhumerus  -49.28089905 28.63380051 62.43270111
lradius  5.228657756e-007 -6.507048965e-006 31.08342934
lwrist  4.824992743e-007 -3.790274832e-007 -27.37140083
lhand  -4.419541843e-031 -36.96720123 -10.38029957
lfingers  90 7.125020027 -90
lthumb  94.78460285 -25.2192499 101.1139209
rclavicle  0 -4.497500157e-015 -2.743230041e-014
rhumerus  -44.0021019 -31.11799812 2.277907848
rradius  -5.16745672e-007 2.214343908e-008 89.98519897
rwrist  -0.0001064338358 0.02974390797 173.0309906
rhand  -1.767612612e-031 2.759769917 -5.35367012
rfingers  -90 -7.125020027 -90
rthumb  -84.37934459 -10.33840874 -61.26012046
rfemur  -13.35644531 16.30810356 11.16560268
rtibia  -1.691980839 -2.182732582 22.02791214
rfoot  0.1686813384 -23.43480873 -33.74490738
rtoes  3.789500055 19.65216168 -101.141769
lfemur  -8.533041954 -18.15197182 -22.12821579
ltibia  2.332711935 -3.035132408 15.64936352
lfoot  1.355960846 -20.45225716 40.24831772
ltoes  -8.627379233 -18.1126513 -116.0141752
270
root  35.05395604 36.48178221 -14.9736915 8.173707008 -7.944413662 4.680173397
lowerback  -6.880060673 -1.286990047 -1.021070123
upperback  -4.08934021 -1.186740041 -4.069340229
thorax  -0.4289489985 -0.4274049997 -3.704740047
lowerneck  -12.08819962 -4.974289894 -3.538810015
upperneck  16.08519936 -7.119299889 7.276010036
head  7.322070122 -2.835390091 2.253560066
lclavicle  0 -4.497500157e-015 -2.743230041e-014
lhumerus  -49.26065063 28.58626747 62.42287064
lradius  5.228657756e-007 -6.507048965e-006 31.08389854
lwrist  4.824992743e-007 -3.790274832e-007 -27.29820061
lhand  -4.421278997e-031 -36.99710083 -10.40019989
lfingers  90 7.125020027 -90
lthumb  94.80267051 -25.23774187 101.1475836
rclavicle  0 -4.497500157e-015 -2.743230041e-014
rhumerus  -44.87950134 -30.81139946 1.885370612
rradius  -5.16745672e-007 2.214343908e-008 90.85179901
rwrist  -0.0001064338358 0.02974390797 172.2440338
rhand  -1.767943699e-031 2.974050045 -5.416100025
rfingers  -90 -7.125020027 -90
rthumb  -84.35617278 -10.29343166 -61.05545454
rfemur  -13.29403782 16.34520531 11.24158382
rtibia  -1.68567884 -2.117945194 22.01258659
rfoot  0.161073938 -23.34361267 -33.86588669
rtoes  3.805782822 19.64913484 -101.1901887
lfemur  -8.512359619 -18.22827911 -22.06643105
ltibia  2.311425209 -3.014691353 15.65963268
lfoot  1.335636973 -20.47280121 40.21901321
ltoes  -8.64716539 -18.10346021 -116.0778352
271
root  35.0473479 36.48278244 -14.97480438 8.163143158 -7.823997498 4.64602375
lowerback  -6.894919872 -1.29745996 -1.018419504
upperback  -4.093840122 -1.199120045 -4.069109917
thorax  -0.4261470139 -0.433066994 -3.707060099
lowerneck  -12.2329998 -4.720349789 -3.359509945
upperneck  16.22120094 -6.789400101 7.185619831
head  7.363070011 -2.666699886 2.227790117
lclavicle  0 -4.497500157e-015 -2.743230041e-014
lhumerus  -49.2743988 28.62140083 62.39350128
lradius  5.228657756e-007 -6.507048965e-006 31.10619926
lwrist  4.824992743e-007 -3.790274832e-007 -27.26609993
lhand  -4.420616235e-031 -36.9856987 -10.42650032
lfingers  90 7.125020027 -90
lthumb  94.80301312 -25.26397725 101.1378152
rclavicle  0 -4.497500157e-015 -2.743230041e-014
rhumerus  -45.6332016 -30.32309914 1.298650503
rradius  -5.16745672e-007 2.214343908e-008 91.86139679
rwrist  -0.0001064338358 0.02974390797 172.4989777
rhand  -1.768131753e-031 3.089119911 -4.974460125
rfingers  -90 -7.125020027 -90
rthumb  -84.10892776 -10.68472188 -60.90292682
rfemur  -13.22324085 16.29643822 11.30847836
rtibia  -1.675106764 -2.10059309 21.95504379
rfoot  0.1728348136 -23.32681465 -33.92369461
rtoes  3.786257412 19.65276285 -101.1321273
lfemur  -8.515774727 -18.30482292 -22.00124168
ltibia  2.291297436 -3.004034758 15.69172859
lfoot  1.311377525 -20.48183823 40.14723969
ltoes  -8.647391629 -18.10335497 -116.0785632
272
root  35.04115428 36.48505924 -14.97597582 8.135520935 -7.702981949 4.613111019
lowerback  -6.932300091 -1.315739989 -1.041749716
upperback  -4.091701031 -1.220010042 -4.054029942
thorax  -0.4068689942 -0.4424679875 -3.680219889
lowerneck  -12.43879986 -4.503089905 -3.23458004
upperneck  16.41290092 -6.506899834 7.120999813
head  7.439449787 -2.518840075 2.21359992
lclavicle  0 -4.497500157e-015 -2.743230041e-014
lhumerus  -49.30279922 28.71389961 62.34550095
lradius  5.228657756e-007 -6.507048965e-006 31.1298008
lwrist  4.824992743e-007 -3.790274832e-007 -27.30220032
lhand  -4.420796467e-031 -36.98880005 -10.47949982
lfingers  90 7.125020027 -90
lthumb  94.81579573 -25.31592275 101.1459791
rclavicle  0 -4.497500157e-015 -2.743230041e-014
rhumerus  -46.36819839 -29.95350075 0.7396504879
rradius  -5.16745672e-007 2.214343908e-008 92.81420135
rwrist  -0.0001064338358 0.02974390797 172.2879944
rhand  -0 2.977999926 -4.927360058
rfingers  -90 -7.125020027 -90
rthumb  -84.11441704 -10.72123274 -61.00774743
rfemur  -13.13617897 16.29266167 11.38156414
rtibia  -1.666372061 -2.051562071 21.9026947
rfoot  0.1836146116 -23.24744225 -34.01835251
rtoes  3.775744678 19.65470817 -101.1008705
lfemur  -8.555200577 -18.34555626 -21.92180252
ltibia  2.234288216 -2.98395443 15.78834724
lfoot  1.289872766 -20.5613575 40.04650116
ltoes  -8.665291673 -18.09501701 -116.1361821
273
root  35.03594586 36.48441044 -14.97565292 8.123058319 -7.592776299 4.598119259
lowerback  -6.949170113 -1.338310003 -1.05787015
upperback  -4.090159893 -1.249989986 -4.023340225
thorax  -0.3930419981 -0.4573990107 -3.641400099
lowerneck  -12.56840038 -4.210810184 -2.977329969
upperneck  16.47559929 -6.123439789 6.936419964
head  7.447080135 -2.333139896 2.150150061
lclavicle  0 -4.497500157e-015 -2.743230041e-014
lhumerus  -49.3368988 28.76659966 62.34899902
lradius  5.228657756e-007 -6.507048965e-006 31.18619919
lwrist  4.824992743e-007 -3.790274832e-007 -27.22570038
lhand  -4.420465287e-031 -36.98310089 -10.44009972
lfingers  90 7.125020027 -90
lthumb  94.8047209 -25.27743256 101.1362918
rclavicle  0 -4.497500157e-015 -2.743230041e-014
rhumerus  -47.04840088 -29.59620285 0.1098820493
rradius  -5.16745672e-007 2.214343908e-008 93.75160217
rwrist  -0.0001064338358 0.02974390797 172.1450043
rhand  -1.767818571e-031 2.894939899 -4.727600098
rfingers  -90 -7.125020027 -90
rthumb  -84.03753935 -10.89259298 -61.07081049
rfemur  -13.09803104 16.260849 11.42270184
rtibia  -1.665114522 -2.040519953 21.89748192
rfoot  0.1533668488 -23.25370026 -34.12030411
rtoes  3.796305749 19.6508982 -101.162006
lfemur  -8.499549866 -18.31917 -21.90525627
ltibia  2.26481843 -2.907732487 15.72721004
lfoot  1.293632984 -20.68011093 40.00431824
ltoes  -8.605122327 -18.12295863 -115.9426031
